<svg xmlns="http://www.w3.org/2000/svg" viewBox="0 0 30 30"><defs><style>.cls-1{fill:#D8D9D8;}</style></defs><title>Asset 7</title><g id="Layer_2" data-name="Layer 2"><g id="Layer_1-2" data-name="Layer 1"><path class="cls-1" d="M12.08,10.55a1.27,1.27,0,1,0-1.6,0A2,2,0,0,0,9.27,12.4h4A2,2,0,0,0,12.08,10.55Z"/><path class="cls-1" d="M13.3,19.47h-4a.32.32,0,0,0,0,.64h4a.32.32,0,0,0,0-.64Z"/><path class="cls-1" d="M15.31,12.72H20.4a.32.32,0,0,0,0-.64H15.31a.32.32,0,0,0,0,.64Z"/><path class="cls-1" d="M13.3,16.64h-4a.32.32,0,0,0,0,.64h4a.32.32,0,0,0,0-.64Z"/><path class="cls-1" d="M15.31,15.48H20.4a.32.32,0,0,0,0-.64H15.31a.32.32,0,0,0,0,.64Z"/><path class="cls-1" d="M15,0A15,15,0,1,0,30,15,15,15,0,0,0,15,0Zm7.11,20.18a.78.78,0,0,1-.19.51L19.8,23.16a.78.78,0,0,1-.59.27H8.48a.59.59,0,0,1-.59-.59V7.15a.59.59,0,0,1,.59-.59h13a.59.59,0,0,1,.59.59Z"/><path class="cls-1" d="M15.31,10H20.4a.32.32,0,0,0,0-.64H15.31a.32.32,0,0,0,0,.64Z"/><path class="cls-1" d="M19.61,20.77v2l1.87-2.19H19.8A.19.19,0,0,0,19.61,20.77Z"/><path class="cls-1" d="M13.3,13.82h-4a.32.32,0,0,0,0,.64h4a.32.32,0,0,0,0-.64Z"/><path class="cls-1" d="M20.72,17.92a.32.32,0,0,0-.32-.32H15.31a.32.32,0,0,0,0,.64H20.4A.32.32,0,0,0,20.72,17.92Z"/></g></g></svg>
